<?xml version="1.0" standalone="no"?>
<!DOCTYPE svg PUBLIC "-//W3C//DTD SVG 20010904//EN"
 "http://www.w3.org/TR/2001/REC-SVG-20010904/DTD/svg10.dtd">
<svg version="1.0" xmlns="http://www.w3.org/2000/svg"
 width="1024.000000pt" height="1024.000000pt" viewBox="0 0 1024.000000 1024.000000"
 preserveAspectRatio="xMidYMid meet">

<g transform="translate(0.000000,1024.000000) scale(0.100000,-0.100000)"
fill="#000000" stroke="none">
<path d="M4666 8117 c-40 -97 -322 -656 -435 -861 -285 -517 -410 -734 -455
-790 -34 -43 -156 -232 -156 -242 0 -15 -53 -109 -85 -151 -19 -25 -35 -49
-35 -54 0 -4 63 -7 139 -7 117 1 144 -2 166 -16 25 -17 27 -17 41 1 8 10 26
41 40 68 15 28 56 95 92 150 36 55 96 154 133 220 37 66 89 154 115 195 26 41
77 127 112 190 209 370 323 559 338 560 14 0 81 -117 160 -280 130 -268 679
-1368 749 -1500 272 -509 341 -642 408 -775 41 -82 100 -193 130 -245 l56 -95
67 3 c38 1 69 4 70 5 1 1 5 36 8 77 3 41 3 66 -1 55 -7 -25 -89 215 -139 405
-19 74 -42 142 -50 151 -8 9 -29 52 -48 95 -44 106 -144 297 -250 479 -49 83
-112 198 -141 256 -30 58 -95 180 -146 270 -51 90 -161 297 -244 459 -267 518
-297 573 -383 705 -146 224 -177 320 -201 619 -5 59 -13 112 -18 117 -4 4 -21
-24 -37 -64z"/>
<path d="M4916 7768 c14 -49 56 -140 105 -235 29 -54 78 -148 110 -210 55
-108 89 -165 89 -150 0 12 -300 617 -306 617 -3 0 -2 -10 2 -22z"/>
<path d="M5968 7441 c-191 -4 -349 -9 -353 -12 -7 -8 40 -110 173 -379 l107
-215 0 -370 c-1 -203 -3 -395 -5 -426 -4 -53 0 -66 52 -173 32 -63 78 -148
104 -188 26 -40 62 -97 79 -128 18 -30 61 -104 96 -165 44 -76 71 -136 87
-195 l23 -85 -6 70 c-2 39 -5 124 -6 190 -2 90 -7 135 -22 180 -15 43 -22 54
-27 41 -4 -14 -9 -8 -19 25 -7 24 -18 55 -24 69 -7 15 -13 119 -15 269 l-4
244 67 -127 c36 -70 81 -151 100 -180 36 -56 328 -637 390 -776 21 -47 69
-145 108 -218 l69 -133 30 48 c37 57 152 294 201 413 19 47 91 196 158 330
132 261 166 332 227 475 21 50 50 112 64 139 l25 49 5 -145 c3 -81 5 -473 4
-872 -1 -721 -1 -726 19 -720 11 3 44 17 74 30 29 13 55 24 56 24 1 0 8 -20
15 -45 14 -51 19 -53 45 -25 10 11 23 20 30 20 14 0 55 42 55 57 0 7 26 31 57
55 31 24 60 55 64 68 4 14 7 95 6 180 l-1 155 -6 -154 -5 -153 -65 -20 c-36
-11 -71 -25 -78 -31 -12 -9 -12 21 -5 184 10 251 10 1701 0 1841 l-9 106 -44
11 c-24 6 -44 17 -44 24 0 30 34 120 79 207 27 52 52 111 55 130 4 19 35 90
68 156 34 67 58 129 55 137 -5 13 -117 15 -884 14 -483 0 -1034 -3 -1225 -6z
m236 -400 c77 -53 115 -90 139 -136 9 -16 16 -25 16 -20 0 6 -6 21 -14 35 -8
14 -14 44 -15 67 0 41 1 42 38 50 61 13 1209 10 1222 -3 12 -12 -5 -56 -40
-102 -10 -12 -16 -30 -14 -40 3 -9 -49 -127 -114 -262 -173 -356 -408 -825
-433 -866 l-21 -35 -19 33 c-10 18 -31 55 -45 83 -15 27 -35 61 -46 75 -11 15
-20 33 -21 41 -2 8 -24 55 -51 104 -27 50 -109 207 -181 350 -128 252 -205
391 -205 370 0 -6 6 -19 14 -30 7 -11 24 -45 37 -75 13 -30 35 -75 50 -100 14
-25 39 -75 55 -110 15 -36 31 -67 34 -70 12 -10 184 -353 209 -418 11 -28 45
-102 76 -163 30 -62 55 -121 55 -131 0 -20 -26 -74 -59 -123 l-20 -29 -24 54
c-28 64 -265 538 -294 590 -11 20 -49 89 -83 155 -35 66 -73 136 -85 155 -12
19 -62 116 -111 215 -49 99 -108 215 -132 258 -24 42 -54 110 -67 150 l-22 73
50 -48 c27 -27 81 -71 121 -97z m1603 -363 c-2 -18 -23 -67 -48 -108 -25 -41
-54 -97 -65 -123 -20 -51 -39 -65 -94 -69 -17 -1 -30 -5 -30 -8 0 -3 -10 -16
-21 -30 -33 -40 -12 -3 66 115 40 61 91 140 114 177 24 37 50 69 59 71 9 3 18
5 19 6 1 0 1 -14 0 -31z m-297 -396 c0 -5 -7 -17 -15 -28 -14 -18 -14 -17 -4
9 12 27 19 34 19 19z m-241 -464 c-7 -13 -25 -42 -40 -65 -16 -23 -29 -46 -29
-52 0 -5 -4 -13 -10 -16 -17 -10 7 43 46 101 37 55 54 72 33 32z m-312 -840
c-2 -13 -4 -3 -4 22 0 25 2 35 4 23 2 -13 2 -33 0 -45z"/>
<path d="M6360 6866 c0 -11 30 -66 36 -66 2 0 -3 15 -12 33 -19 36 -24 44 -24
33z"/>
<path d="M1688 7408 c4 -18 7 -107 7 -198 l0 -165 362 0 363 0 1 -90 c0 -49 1
-631 2 -1292 l2 -1201 30 5 c17 3 48 12 70 20 22 8 64 21 94 29 67 19 160 60
183 81 10 9 18 27 18 40 0 26 -12 28 -72 14 l-38 -9 0 38 c0 50 -10 77 -21 58
-5 -7 -9 245 -9 563 0 317 -3 618 -7 670 l-6 94 37 -32 c48 -43 71 -48 162
-34 41 6 162 11 268 11 233 0 253 3 254 37 0 24 50 154 63 163 16 11 105 137
124 175 15 29 30 43 55 52 28 9 -66 12 -452 15 -267 1 -488 5 -491 8 -2 3 -7
145 -9 316 l-5 311 35 -23 c19 -13 49 -24 66 -24 17 0 189 1 381 2 193 2 393
2 447 0 l96 -2 10 30 c6 16 36 73 67 127 31 54 74 131 95 171 l39 72 -1114 0
-1114 0 7 -32z m1001 -2792 c-9 -8 -10 -7 -5 7 3 10 7 24 7 30 1 7 3 4 6 -7 3
-10 -1 -23 -8 -30z"/>
<path d="M8163 7308 c-51 -22 -93 -45 -93 -50 0 -6 11 -3 24 5 22 15 24 15 29
-2 5 -19 56 -35 82 -24 13 5 65 91 65 108 0 9 -11 5 -107 -37z"/>
<path d="M4579 6998 c-40 -73 -91 -164 -114 -203 -23 -38 -56 -95 -74 -125
-17 -30 -50 -84 -73 -120 -22 -36 -69 -114 -103 -175 -34 -60 -109 -189 -167
-285 -58 -96 -149 -254 -204 -350 -54 -96 -135 -238 -179 -315 -45 -77 -150
-261 -235 -410 -165 -290 -214 -374 -272 -462 -21 -32 -36 -58 -35 -60 4 -4
736 -5 1890 -4 l987 1 -23 38 c-42 67 -130 235 -158 300 l-26 64 -388 -2 -387
-1 4 538 3 538 30 37 c17 21 36 38 43 38 7 0 10 5 7 10 -3 6 -2 10 4 10 5 0
12 -8 15 -17 3 -10 4 17 1 60 -4 81 -9 94 -83 201 l-27 38 -8 -43 c-5 -24 -6
-357 -3 -739 5 -682 5 -696 -14 -708 -11 -7 -17 -18 -14 -27 4 -9 0 -15 -9
-15 -8 0 -38 -16 -67 -35 -29 -19 -53 -35 -54 -35 -1 0 0 17 1 38 4 46 9 1801
6 1798 -3 -3 -87 -140 -169 -274 -34 -57 -70 -112 -80 -123 -17 -18 -17 -57
-15 -649 2 -527 0 -631 -11 -635 -24 -9 -608 -10 -710 -2 -82 8 -96 11 -91 25
4 8 35 65 71 126 35 61 109 197 164 301 56 105 131 242 168 305 99 168 213
375 296 537 40 78 85 161 100 185 15 24 65 111 111 193 46 83 92 157 103 167
11 9 20 22 20 29 0 6 -22 60 -49 118 -26 58 -59 135 -71 171 -13 36 -27 69
-31 73 -3 5 -40 -51 -80 -125z"/>
<path d="M5261 7073 c16 -42 112 -214 117 -209 4 5 -117 236 -124 236 -2 0 1
-12 7 -27z"/>
<path d="M8142 6920 c0 -14 2 -19 5 -12 2 6 2 18 0 25 -3 6 -5 1 -5 -13z"/>
<path d="M8064 6715 c3 -121 7 -337 8 -480 1 -198 3 -236 8 -160 9 127 -3 842
-14 852 -5 4 -6 -91 -2 -212z"/>
<path d="M5417 6773 c10 -27 134 -263 138 -263 7 0 -46 114 -92 198 -42 78
-60 103 -46 65z"/>
<path d="M2947 6548 c-3 -23 -2 -49 3 -58 6 -10 9 3 10 43 0 67 -5 74 -13 15z"/>
<path d="M2840 6540 c0 -11 7 -20 15 -20 17 0 18 2 9 24 -9 23 -24 20 -24 -4z"/>
<path d="M1879 6523 l-116 -4 1 -124 1 -125 105 0 c58 0 115 -3 126 -6 21 -5
22 -2 23 88 1 51 4 112 7 136 6 37 4 42 -12 40 -11 -1 -71 -4 -135 -5z"/>
<path d="M2830 6500 c0 -5 10 -10 23 -10 12 0 33 -3 47 -6 24 -5 24 -5 6 10
-22 18 -76 22 -76 6z"/>
<path d="M5570 6476 c0 -11 30 -66 36 -66 2 0 -3 15 -12 33 -19 36 -24 44 -24
33z"/>
<path d="M2036 6387 c3 -8 26 -20 52 -27 26 -7 53 -20 60 -28 11 -14 12 -14
12 2 0 16 -46 42 -107 61 -18 5 -22 3 -17 -8z"/>
<path d="M5645 6333 c15 -27 43 -76 62 -110 39 -71 55 -85 22 -20 -31 60 -100
177 -106 177 -3 0 7 -21 22 -47z"/>
<path d="M8124 6100 c0 -91 2 -128 3 -82 2 45 2 119 0 165 -1 45 -3 8 -3 -83z"/>
<path d="M2153 6205 c0 -22 2 -30 4 -17 2 12 2 30 0 40 -3 9 -5 -1 -4 -23z"/>
<path d="M1883 5993 l-123 -4 0 -124 0 -125 130 0 130 0 0 130 c0 72 -3 129
-7 128 -5 -1 -63 -4 -130 -5z"/>
<path d="M2044 5893 c8 -9 96 -43 96 -37 0 6 -41 26 -73 35 -16 5 -27 5 -23 2z"/>
<path d="M8081 5685 c0 -44 4 -87 9 -95 12 -19 12 63 1 130 -8 41 -9 38 -10
-35z"/>
<path d="M6431 5734 c0 -11 3 -14 6 -6 3 7 2 16 -1 19 -3 4 -6 -2 -5 -13z"/>
<path d="M8128 5653 c-3 -49 -2 -135 2 -193 6 -94 7 -85 8 88 1 105 0 192 -2
192 -1 0 -5 -39 -8 -87z"/>
<path d="M1920 5684 c0 -17 23 -34 45 -33 14 0 16 2 5 6 -8 3 -23 12 -32 21
-10 8 -18 11 -18 6z"/>
<path d="M6442 5540 c0 -14 2 -19 5 -12 2 6 2 18 0 25 -3 6 -5 1 -5 -13z"/>
<path d="M8071 5534 c0 -11 3 -14 6 -6 3 7 2 16 -1 19 -3 4 -6 -2 -5 -13z"/>
<path d="M1764 5313 l0 -133 127 0 128 0 3 133 3 133 -131 0 -131 -1 1 -132z"/>
<path d="M2040 5350 c0 -10 87 -43 102 -38 6 2 -14 13 -45 25 -32 11 -57 17
-57 13z"/>
<path d="M2143 5195 c0 -27 2 -38 4 -22 2 15 2 37 0 50 -2 12 -4 0 -4 -28z"/>
<path d="M1932 5104 c10 -10 20 -16 22 -13 3 3 -5 11 -17 18 -21 13 -21 12 -5
-5z"/>
<path d="M8138 4988 c-3 -7 -2 -85 2 -173 l7 -160 1 173 c1 94 0 172 -2 172
-2 0 -6 -6 -8 -12z"/>
<path d="M1888 4882 l-128 -3 0 -133 0 -134 128 -4 c70 -2 128 -3 130 -2 1 0
1 64 0 140 l-3 139 -127 -3z"/>
<path d="M6333 4830 c0 -25 2 -35 4 -22 2 12 2 32 0 45 -2 12 -4 2 -4 -23z"/>
<path d="M2051 4777 c2 -2 27 -16 54 -32 36 -20 46 -23 35 -10 -8 10 -29 24
-47 32 -30 12 -52 17 -42 10z"/>
<path d="M7135 4661 c-7 -24 -25 -27 -44 -8 -8 6 -6 0 4 -15 23 -37 42 -35 48
5 5 38 2 47 -8 18z"/>
<path d="M8153 4560 c0 -47 2 -66 4 -42 2 23 2 61 0 85 -2 23 -4 4 -4 -43z"/>
<path d="M2141 4554 c0 -11 3 -14 6 -6 3 7 2 16 -1 19 -3 4 -6 -2 -5 -13z"/>
<path d="M2033 4533 c15 -2 37 -2 50 0 12 2 0 4 -28 4 -27 0 -38 -2 -22 -4z"/>
<path d="M2942 4400 c0 -19 2 -27 5 -17 2 9 2 25 0 35 -3 9 -5 1 -5 -18z"/>
<path d="M2631 4363 c-1 -28 2 -33 22 -32 15 1 17 3 5 6 -9 2 -19 16 -21 31
-4 24 -4 24 -6 -5z"/>
<path d="M5048 4098 c-9 -24 -56 -128 -103 -233 -48 -104 -127 -280 -175 -390
-95 -216 -227 -504 -263 -573 -12 -24 -45 -73 -74 -110 l-52 -67 37 -7 c20 -4
101 -7 179 -7 166 -1 145 -15 214 142 25 55 53 104 64 110 21 12 396 14 433 3
19 -6 43 -53 94 -181 l24 -60 75 -7 c41 -4 111 -4 157 -1 l83 5 -29 18 c-38
23 -36 20 -372 660 -59 113 -124 232 -144 264 -19 33 -38 66 -40 75 -18 61
-76 318 -77 340 0 14 -4 34 -7 44 -6 14 -11 9 -24 -25z m82 -768 c33 -46 27
-50 -66 -50 -84 0 -85 0 -79 23 4 12 23 47 43 79 l36 56 23 -40 c12 -21 32
-52 43 -68z"/>
<path d="M6352 4096 c-12 -24 -40 -97 -62 -162 -37 -113 -126 -343 -173 -448
-13 -30 -23 -43 -25 -33 -2 10 -13 17 -27 17 -19 0 -26 9 -40 53 -21 63 -57
149 -61 144 -2 -1 15 -50 37 -107 49 -126 59 -206 34 -265 -15 -35 -19 -37
-25 -20 -4 11 -52 126 -105 255 -54 129 -112 278 -130 330 -19 52 -43 122 -55
155 -17 46 -19 64 -11 77 10 17 2 18 -134 18 -80 0 -145 -2 -145 -4 0 -2 14
-35 31 -73 17 -37 86 -205 154 -373 68 -168 151 -368 185 -445 34 -77 87 -196
117 -265 31 -69 70 -161 87 -204 18 -44 37 -81 43 -83 9 -3 179 382 252 572
31 82 79 165 94 165 4 0 19 -26 33 -57 14 -32 52 -114 84 -183 56 -118 168
-386 192 -457 6 -18 14 -33 18 -33 4 0 12 24 19 53 6 28 23 77 37 107 90 190
150 348 194 515 41 157 87 300 110 346 23 43 60 59 60 26 1 -19 3 -17 14 8 12
25 15 27 21 13 4 -11 18 -18 36 -18 28 0 34 8 29 40 -6 42 61 -80 166 -304
l94 -199 0 -269 0 -268 83 0 84 0 13 -55 c7 -30 17 -55 22 -55 5 0 6 5 3 11
-4 6 -9 28 -11 49 -3 37 -3 38 34 45 l37 6 0 279 c0 268 1 279 21 302 11 13
30 39 41 58 17 29 371 726 381 752 4 10 -69 10 -213 1 l-108 -6 -100 -206
c-55 -113 -104 -217 -109 -230 -9 -24 -9 -24 -28 12 -11 21 -41 88 -66 150
-48 119 -83 185 -108 207 -9 7 -16 11 -16 8 0 -7 151 -333 177 -379 l25 -47
-25 -46 -25 -47 -90 178 c-94 188 -162 347 -162 381 0 11 -7 23 -16 26 -20 8
-302 8 -342 0 -25 -5 -33 -14 -47 -53 -52 -147 -150 -454 -186 -579 -22 -79
-50 -160 -62 -179 l-20 -35 -12 43 c-6 24 -47 112 -92 194 -45 83 -95 191
-112 240 -47 139 -81 275 -81 325 0 69 -13 77 -38 26z"/>
<path d="M1845 4113 l-150 -3 0 -698 0 -697 92 3 91 3 16 -55 c16 -53 18 -56
49 -55 30 0 31 1 10 11 -14 7 -23 20 -23 35 0 12 -4 23 -8 23 -5 0 -9 6 -9 14
0 13 135 26 286 26 54 0 77 6 155 43 76 36 101 54 149 108 88 99 134 207 139
327 2 47 -2 66 -15 79 -16 16 -16 15 -7 -17 22 -77 5 -174 -43 -245 l-27 -39
1 114 c1 149 -19 208 -97 285 -30 29 -54 59 -54 67 0 8 9 23 21 34 12 10 27
30 34 44 20 39 38 168 32 223 -8 66 -57 169 -112 233 -25 29 -41 55 -37 58 5
3 24 1 43 -4 32 -9 33 -8 14 6 -67 53 -198 85 -330 82 -38 -2 -137 -4 -220 -5z
m338 -296 c78 -33 115 -134 71 -194 -33 -46 -78 -60 -197 -66 l-108 -5 2 145
2 146 98 -6 c53 -3 113 -13 132 -20z m80 -564 c34 -17 67 -68 67 -104 0 -30
-34 -84 -71 -111 -37 -28 -90 -37 -201 -38 l-98 0 0 140 0 139 138 -6 c87 -4
147 -11 165 -20z"/>
<path d="M2089 3670 c-2 -85 -1 -83 -29 -91 -23 -6 -22 -7 8 -8 l32 -1 0 80
c0 93 -9 109 -11 20z"/>
<path d="M2168 3203 c6 -2 18 -2 25 0 6 3 1 5 -13 5 -14 0 -19 -2 -12 -5z"/>
<path d="M2110 3180 c0 -5 -6 -10 -12 -10 -10 0 -12 -21 -10 -82 2 -48 7 -76
12 -68 9 18 23 170 15 170 -3 0 -5 -4 -5 -10z"/>
<path d="M2747 3475 c1 -352 5 -667 8 -700 l6 -61 66 4 c48 3 68 1 74 -9 5 -8
9 -9 9 -4 0 6 79 9 222 7 122 -2 236 -1 253 3 21 4 44 24 75 63 42 54 140 208
140 221 0 3 -134 6 -297 6 l-298 0 -3 40 c-2 22 -1 82 3 133 l7 92 29 0 c16 0
29 -4 29 -10 0 -6 9 -6 26 0 14 6 71 10 127 10 56 0 107 4 113 8 16 11 97 112
159 200 l55 77 -227 6 c-126 4 -249 7 -275 8 l-48 1 0 133 0 132 200 -3 201
-4 35 39 c37 40 161 221 163 238 1 7 -147 10 -427 10 l-427 0 2 -640z"/>
<path d="M4058 4113 c-317 -3 -378 -6 -378 -17 0 -8 -6 -17 -12 -19 -9 -4 -10
-8 -3 -14 14 -10 31 -67 50 -161 8 -40 15 -75 15 -78 0 -3 91 -2 202 2 196 7
201 7 194 -12 -4 -10 -74 -136 -155 -279 -200 -351 -279 -494 -329 -595 -23
-47 -64 -114 -91 -150 l-49 -65 36 -7 c21 -4 207 -7 415 -7 l377 -1 10 23 c4
12 44 76 88 142 l80 120 -249 3 c-162 1 -249 6 -249 13 0 13 130 257 272 510
64 113 130 233 146 265 17 33 49 88 72 123 38 57 110 192 110 206 0 3 -39 4
-87 3 -49 -2 -258 -4 -465 -5z"/>
<path d="M8295 4005 c-60 -13 -119 -33 -100 -34 6 -1 32 6 59 14 27 8 66 15
87 15 21 0 41 5 44 10 8 13 -16 12 -90 -5z"/>
<path d="M4648 3963 c17 -2 47 -2 65 0 17 2 3 4 -33 4 -36 0 -50 -2 -32 -4z"/>
<path d="M5231 3855 c0 -17 48 -101 48 -85 0 8 -11 33 -24 55 -14 22 -25 36
-24 30z"/>
<path d="M2564 3827 c3 -10 7 -49 8 -85 1 -42 3 -53 5 -29 2 20 9 37 14 37 6
0 7 5 4 10 -3 6 -1 10 4 10 17 0 13 13 -15 45 -16 19 -23 23 -20 12z"/>
<path d="M5910 3771 c0 -6 4 -13 10 -16 6 -3 7 1 4 9 -7 18 -14 21 -14 7z"/>
<path d="M3077 3710 c3 -36 7 -67 9 -69 8 -9 2 95 -6 114 -5 12 -7 -5 -3 -45z"/>
<path d="M3618 3753 c12 -2 32 -2 45 0 12 2 2 4 -23 4 -25 0 -35 -2 -22 -4z"/>
<path d="M5282 3745 c2 -5 32 -68 66 -139 34 -71 62 -132 62 -135 0 -14 353
-711 360 -711 4 0 11 -8 14 -17 11 -32 33 -63 39 -57 3 4 -18 52 -47 108 -30
55 -92 175 -139 266 -47 91 -105 203 -130 250 -25 47 -59 121 -77 164 -17 44
-36 89 -43 100 -6 12 -12 29 -14 39 -4 27 -42 95 -43 77 0 -8 -12 3 -26 25
-14 22 -24 36 -22 30z"/>
<path d="M6630 3668 c0 -6 9 -30 19 -52 10 -23 31 -78 46 -123 25 -77 45 -107
45 -65 0 41 -68 214 -90 227 -6 3 -8 11 -5 16 4 5 1 9 -4 9 -6 0 -11 -5 -11
-12z"/>
<path d="M7131 3664 c0 -11 3 -14 6 -6 3 7 2 16 -1 19 -3 4 -6 -2 -5 -13z"/>
<path d="M2503 3531 l-42 -49 34 -38 c24 -27 34 -34 35 -22 0 9 -5 20 -11 23
-6 4 -8 13 -5 20 2 7 -1 18 -7 25 -9 10 -9 11 1 6 7 -4 12 -1 12 9 0 9 7 29
15 45 9 17 14 30 13 30 -2 0 -22 -22 -45 -49z"/>
<path d="M2606 3410 c-9 -17 -24 -30 -32 -30 -8 0 -14 -4 -14 -10 0 -5 6 -10
13 -10 13 0 63 67 55 75 -2 2 -12 -9 -22 -25z"/>
<path d="M3072 3190 c0 -30 3 -73 7 -95 l9 -40 0 40 c0 22 -3 65 -8 95 l-7 55
-1 -55z"/>
<path d="M3493 3223 c9 -2 25 -2 35 0 9 3 1 5 -18 5 -19 0 -27 -2 -17 -5z"/>
<path d="M7792 2795 c0 -16 2 -22 5 -12 2 9 2 23 0 30 -3 6 -5 -1 -5 -18z"/>
<path d="M5782 2685 c4 -4 -12 -20 -35 -35 -28 -18 -44 -23 -49 -16 -5 8 -8 7
-8 -1 0 -13 -88 -11 -110 2 -8 5 -11 3 -8 -6 4 -11 35 -14 151 -14 81 0 147 1
147 3 0 16 -34 62 -43 59 -7 -2 -21 0 -32 6 -11 5 -17 6 -13 2z"/>
<path d="M7744 2618 c-3 -4 19 -8 48 -7 57 1 55 5 -5 11 -21 2 -40 0 -43 -4z"/>
<path d="M7908 2613 c7 -3 16 -2 19 1 4 3 -2 6 -13 5 -11 0 -14 -3 -6 -6z"/>
<path d="M4034 2271 c3 -24 6 -57 6 -74 l0 -29 61 4 60 4 -3 -183 -3 -183 78
0 77 0 0 180 0 180 70 0 70 0 0 59 c0 33 3 66 6 75 5 13 -19 15 -211 13 l-217
-2 6 -44z"/>
<path d="M5125 2070 l0 -250 72 0 72 0 3 123 3 122 32 -55 c18 -30 43 -68 57
-85 21 -26 26 -28 49 -18 14 7 47 39 74 72 l48 61 3 -110 3 -110 71 0 71 0 -6
152 c-4 83 -7 193 -7 245 l0 93 -56 0 c-62 0 -68 -5 -154 -129 -25 -35 -49
-66 -55 -68 -5 -2 -23 18 -39 43 -16 25 -49 73 -73 105 l-43 59 -62 0 -63 0 0
-250z"/>
<path d="M4618 2250 l-3 -61 120 7 c66 4 121 7 122 8 0 0 3 23 5 49 l3 48
-122 5 -121 6 -4 -62z"/>
<path d="M2629 2252 l-945 -2 7 -53 c4 -28 8 -85 8 -125 l1 -72 908 2 907 3
-3 26 c-1 15 13 71 33 124 19 54 34 99 33 99 -2 1 -429 0 -949 -2z"/>
<path d="M7153 2252 c-508 -1 -923 -5 -923 -8 0 -3 6 -32 14 -63 8 -31 17 -84
21 -119 l7 -63 899 2 898 1 -6 30 c-3 16 0 69 7 117 7 49 11 92 9 97 -2 5
-403 8 -926 6z"/>
</g>
</svg>
